<svg id="Layer_1" data-name="Layer 1" xmlns="http://www.w3.org/2000/svg" viewBox="0 0 411.23 518.59"><defs><style>.cls-1{fill:#282828;}.cls-2{fill:#434343;}.cls-3{fill:#623332;}.cls-4{fill:#6b3a3a;}.cls-5{fill:#602c39;}.cls-6{fill:#4d1b23;}.cls-7{fill:#6d4235;}.cls-8{fill:#7a4b41;}.cls-9{fill:#e9c0a7;}.cls-10{fill:#fcdbc0;}.cls-11{fill:#b9887b;}.cls-12{fill:#f9f9f9;}.cls-13{fill:#6b3d32;}.cls-14{fill:#602323;}.cls-15{fill:#773725;}.cls-16{fill:#a86c5a;}.cls-17{fill:#99604f;}.cls-18{fill:#843a20;}.cls-19{fill:#662412;}.cls-20{fill:#c69c8f;}.cls-21{fill:#4e4e4e;}.cls-22{fill:#1a1a1a;}.cls-23{fill:#292929;}.cls-24{fill:#3c3c3c;}.cls-25{fill:#dbb1a1;}.cls-26{fill:#141414;}.cls-27{fill:#272727;}.cls-28{fill:#464646;}.cls-29{fill:#333;}.cls-30{fill:#979b97;}.cls-31{fill:#2f2f2f;}</style></defs><title>Janis</title><rect class="cls-1" x="138.02" y="380.58" width="30.98" height="60.46"/><rect class="cls-2" x="217.01" y="270.05" width="59.02" height="30.96"/><rect class="cls-2" x="273.39" y="297.89" width="30.25" height="30.96"/><rect class="cls-3" x="82.81" y="21.73" width="30.49" height="30.49"/><rect class="cls-4" x="110.41" y="21.73" width="29.88" height="29.88"/><rect class="cls-4" x="138.02" y="21.73" width="29.88" height="29.88"/><rect class="cls-5" x="165.62" y="21.73" width="30.49" height="30.49"/><rect class="cls-6" x="193.23" y="21.73" width="27.6" height="29.88"/><rect class="cls-3" x="55.21" y="49.33" width="29.77" height="29.77"/><rect class="cls-4" x="82.81" y="49.33" width="30.49" height="30.49"/><rect class="cls-4" x="110.41" y="49.33" width="29.77" height="29.77"/><rect class="cls-3" x="138.02" y="49.33" width="30.49" height="30.49"/><rect class="cls-7" x="165.62" y="49.33" width="30.49" height="30.49"/><rect class="cls-5" x="193.23" y="49.33" width="31.95" height="31.95"/><rect class="cls-6" x="220.83" y="49.33" width="27.6" height="31.5"/><rect class="cls-8" x="27.6" y="76.94" width="29.71" height="29.71"/><rect class="cls-8" x="55.21" y="76.94" width="29.71" height="29.71"/><rect class="cls-9" x="82.81" y="76.94" width="140.32" height="29.71"/><rect class="cls-6" x="220.83" y="76.74" width="30.92" height="31.12"/><rect class="cls-7" x="27.6" y="104.54" width="30.49" height="30.49"/><rect class="cls-9" x="55.21" y="104.54" width="30.04" height="30.04"/><rect class="cls-9" x="82.81" y="104.54" width="30.49" height="30.49"/><rect class="cls-9" x="110.41" y="104.54" width="30.49" height="30.49"/><rect class="cls-10" x="138.02" y="104.54" width="31.29" height="31.29"/><rect class="cls-10" x="165.62" y="104.54" width="29.24" height="29.24"/><rect class="cls-3" x="27.6" y="132.14" width="31.3" height="27.49"/><rect class="cls-11" x="55.21" y="132.03" width="57.74" height="30.66"/><rect x="55.21" y="159.75" width="30.04" height="30.04"/><rect class="cls-12" x="82.81" y="159.75" width="28.99" height="28.99"/><rect class="cls-9" x="55.21" y="187.35" width="57.74" height="30.2"/><rect class="cls-10" x="110.41" y="132.14" width="30.49" height="85.7"/><rect class="cls-11" x="138.02" y="132.14" width="57.64" height="30.55"/><rect class="cls-13" x="193.23" y="104.54" width="30.51" height="58.15"/><rect x="138.02" y="159.75" width="31.29" height="31.29"/><rect class="cls-12" x="165.62" y="159.75" width="30.04" height="30.04"/><rect class="cls-9" x="193.23" y="159.75" width="30.51" height="30.51"/><rect class="cls-3" x="220.83" y="104.54" width="29.92" height="86.49"/><rect class="cls-6" x="248.43" y="76.74" width="27.6" height="113.04"/><rect class="cls-9" x="138.02" y="187.35" width="85.32" height="30.2"/><rect class="cls-14" x="220.83" y="187.35" width="32.66" height="27.6"/><rect class="cls-14" x="220.83" y="187.35" width="27.6" height="33.07"/><rect class="cls-11" x="248.43" y="187.35" width="27.6" height="27.6"/><rect class="cls-9" x="55.21" y="214.95" width="30.59" height="30.59"/><rect class="cls-15" x="55.21" y="242.56" width="30.59" height="27.6"/><rect class="cls-16" x="82.81" y="214.95" width="30.14" height="30.14"/><rect class="cls-17" x="110.41" y="214.95" width="30.73" height="30.73"/><rect class="cls-16" x="138.02" y="214.95" width="30.49" height="30.49"/><rect class="cls-11" x="193.02" y="237.86" width="27.81" height="15.17"/><rect class="cls-9" x="165.62" y="214.95" width="30.49" height="30.49"/><rect class="cls-11" x="193.23" y="214.95" width="30.51" height="27.6"/><rect class="cls-14" x="220.83" y="214.95" width="27.6" height="27.6"/><rect class="cls-11" x="110.41" y="242.56" width="30.49" height="30.49"/><rect class="cls-11" x="82.81" y="242.56" width="30.14" height="30.14"/><rect class="cls-11" x="138.02" y="242.56" width="30.84" height="30.84"/><rect class="cls-17" x="165.62" y="242.56" width="30.49" height="30.49"/><rect class="cls-18" x="193.23" y="242.56" width="27.6" height="32.71"/><rect class="cls-7" x="82.81" y="270.16" width="30.14" height="27.6"/><rect class="cls-7" x="110.41" y="270.16" width="30.73" height="30.73"/><rect class="cls-7" x="138.02" y="270.16" width="30.18" height="30.18"/><rect class="cls-19" x="165.62" y="270.16" width="31.38" height="31.38"/><rect class="cls-20" x="193.23" y="270.16" width="27.6" height="32.89"/><rect class="cls-21" x="110.41" y="297.89" width="31.83" height="30.13"/><rect class="cls-11" x="138.02" y="297.89" width="30.58" height="30.46"/><rect class="cls-11" x="165.62" y="297.89" width="30.13" height="30.13"/><rect class="cls-20" x="193.23" y="297.89" width="30.11" height="29.99"/><rect class="cls-1" x="220.83" y="297.89" width="55.21" height="30.46"/><rect class="cls-2" x="82.81" y="325.48" width="30.14" height="30.14"/><rect class="cls-22" x="110.41" y="325.48" width="30.73" height="30.73"/><rect class="cls-9" x="138.02" y="325.37" width="30.84" height="30.84"/><rect class="cls-9" x="165.62" y="325.37" width="30.25" height="30.25"/><rect class="cls-1" x="193.23" y="325.12" width="30.11" height="30.5"/><rect class="cls-2" x="220.83" y="325.12" width="30.25" height="30.5"/><rect class="cls-2" x="248.43" y="325.12" width="30.25" height="30.5"/><rect class="cls-23" x="276.04" y="325.12" width="27.6" height="31.09"/><rect class="cls-23" x="55.21" y="353.42" width="32.9" height="31.09"/><rect class="cls-2" x="82.81" y="353.08" width="30.76" height="30.76"/><rect class="cls-22" x="110.41" y="352.97" width="30.87" height="30.87"/><rect class="cls-1" x="248.43" y="353.08" width="31.31" height="30.76"/><rect class="cls-22" x="276.04" y="353.08" width="27.6" height="30.18"/><rect class="cls-23" x="27.6" y="380.58" width="31.31" height="31.31"/><rect class="cls-24" x="55.21" y="380.8" width="31.09" height="31.09"/><rect class="cls-23" x="82.81" y="380.58" width="31.31" height="31.31"/><rect class="cls-21" x="110.41" y="380.8" width="31.09" height="31.09"/><rect class="cls-9" x="55.21" y="214.95" width="27.6" height="27.6"/><line class="cls-11" x1="211.02" y1="243.16" x2="211.02" y2="215.56"/><line class="cls-6" x1="211.04" y1="215.75" x2="211.04" y2="243.35"/><line class="cls-7" x1="210.41" y1="243.77" x2="210.41" y2="216.16"/><line class="cls-7" x1="411.23" x2="411.23" y2="27.6"/><line class="cls-25" x1="21.35" y1="7.93" x2="21.35" y2="35.53"/><line class="cls-9" x1="285.12" y1="71.44" x2="285.12" y2="43.83"/><line class="cls-10" x1="331.24" y1="129.04" x2="331.24" y2="101.44"/><line class="cls-2" x1="309.02" y1="347.58" x2="309.02" y2="375.18"/><rect class="cls-22" x="138.02" y="352.81" width="30.18" height="30.18"/><rect class="cls-26" x="137.67" y="380.47" width="32.33" height="30.82"/><rect class="cls-1" x="165.62" y="352.81" width="30.49" height="59.08"/><rect class="cls-22" x="193" y="353.08" width="30.74" height="30.18"/><rect class="cls-1" x="220.61" y="353.08" width="30.74" height="30.18"/><rect class="cls-1" x="191.49" y="380.58" width="33.25" height="30.23"/><rect class="cls-27" x="220.61" y="380.58" width="34.7" height="34.31"/><rect class="cls-1" x="248.43" y="380.58" width="31.31" height="31.31"/><rect class="cls-27" x="276.04" y="380.58" width="32.98" height="32.98"/><rect class="cls-22" x="303.64" y="380.58" width="27.6" height="31.31"/><rect class="cls-23" x="27.6" y="408.18" width="29.91" height="29.91"/><rect class="cls-24" x="55.21" y="408.18" width="30.59" height="30.59"/><rect class="cls-28" x="82.81" y="407.09" width="30.8" height="33.94"/><rect class="cls-29" x="110.41" y="407.09" width="30.85" height="35.65"/><rect class="cls-30" x="137.67" y="406.74" width="33.58" height="35.29"/><rect class="cls-1" x="165.62" y="406.27" width="29.05" height="34.99"/><rect class="cls-1" x="191.49" y="408.18" width="30.49" height="33.26"/><rect class="cls-24" x="220.61" y="408.07" width="31.67" height="31.67"/><rect class="cls-23" y="434.69" width="32.89" height="83.9"/><rect class="cls-24" x="27.6" y="434.69" width="38.57" height="83.9"/><rect class="cls-28" x="55.21" y="434.69" width="84.46" height="83.9"/><rect class="cls-12" x="137.67" y="434.76" width="32.27" height="33.27"/><rect class="cls-24" x="165.62" y="434.69" width="33.24" height="34.13"/><rect class="cls-22" x="137.67" y="464.11" width="30.5" height="54.48"/><rect class="cls-24" x="165.62" y="464.11" width="33.24" height="54.48"/><rect class="cls-24" x="194.67" y="434.69" width="26.16" height="83.9"/><rect class="cls-24" x="212.93" y="434.69" width="38.41" height="83.9"/><rect class="cls-31" x="248.43" y="408.07" width="30.25" height="110.53"/><rect class="cls-1" x="276.04" y="408.07" width="32.98" height="110.53"/><rect class="cls-27" x="303.64" y="408.07" width="29.61" height="110.53"/><rect class="cls-26" x="331.24" y="408.07" width="27.6" height="31.49"/><rect class="cls-22" x="331.24" y="435.67" width="27.6" height="82.92"/><rect class="cls-21" x="165.63" y="380.58" width="27.38" height="26.16"/></svg>